Coordinates
version=1
nRows=8
nColumns=63
inDegrees=yes

Units are S.I. units (second, meters, Newtons, ...)
If the header above contains a line with 'inDegrees', this indicates whether rotational values are in degrees (yes) or radians (no).

endheader
time	pelvis_tilt	pelvis_list	pelvis_rotation	pelvis_tx	pelvis_ty	pelvis_tz	hip_flexion_r	hip_adduction_r	hip_rotation_r	knee_angle_r	knee_angle_r_beta	ankle_angle_r	subtalar_angle_r	mtp_angle_r	hip_flexion_l	hip_adduction_l	hip_rotation_l	knee_angle_l	knee_angle_l_beta	ankle_angle_l	subtalar_angle_l	mtp_angle_l	L5_S1_Flex_Ext	L5_S1_Lat_Bending	L5_S1_axial_rotation	L4_L5_Flex_Ext	L4_L5_Lat_Bending	L4_L5_axial_rotation	L3_L4_Flex_Ext	L3_L4_Lat_Bending	L3_L4_axial_rotation	L2_L3_Flex_Ext	L2_L3_Lat_Bending	L2_L3_axial_rotation	L1_L2_Flex_Ext	L1_L2_Lat_Bending	L1_L2_axial_rotation	L1_T12_Flex_Ext	L1_T12_Lat_Bending	L1_T12_axial_rotation	Abs_r3	Abs_r2	Abs_r1	Abs_t1	Abs_t2	neck_flexion	neck_bending	neck_rotation	arm_flex_r	arm_add_r	arm_rot_r	elbow_flex_r	pro_sup_r	wrist_flex_r	wrist_dev_r	arm_flex_l	arm_add_l	arm_rot_l	elbow_flex_l	pro_sup_l	wrist_flex_l	wrist_dev_l
1.728814	8.422989	-4.577209	78.925802	0.262778	0.933013	0.626226	7.819189	6.937390	-29.395090	7.048292	0.123016	15.421454	6.965494	0.000000	4.359707	-7.923981	18.968013	6.100240	0.106469	0.438526	16.591031	0.000000	-0.245664	1.010078	0.738356	-0.456222	1.343404	0.784503	-0.403601	2.455904	0.784503	-0.280769	2.455904	0.646062	-0.228124	2.059752	0.599914	-0.140372	1.564611	0.553767	-1.754753	11.426207	4.106516	0.000000	0.000000	22.287940	-4.748028	-3.778996	10.452269	-18.208351	476.913774	14.002257	6.529185	-7.222350	-11.898429	10.281441	-7.105844	145.102621	5.988663	3.691801	-16.268731	-9.494131
1.745763	8.435985	-4.574895	78.908624	0.262944	0.932913	0.626318	7.754611	7.028275	-29.025468	6.829940	0.119205	15.559664	6.804895	0.000000	4.342086	-7.939359	19.166817	6.018047	0.105035	0.798445	16.590905	0.000000	-0.248461	1.007012	0.741372	-0.461417	1.339325	0.787708	-0.408196	2.448448	0.787708	-0.283966	2.448448	0.648701	-0.230721	2.053498	0.602365	-0.141971	1.559861	0.556029	-1.774731	11.391517	4.123290	0.000000	0.000000	22.321091	-4.646762	-3.773962	10.464250	-18.199783	476.615689	14.044415	6.530716	-7.174748	-11.911139	10.243316	-7.250407	143.704276	6.300145	3.709768	-15.516321	-9.341950
1.762712	8.451021	-4.570196	78.894565	0.263048	0.932793	0.626367	7.690910	7.106313	-28.835964	6.640099	0.115892	15.597863	6.761035	0.000000	4.320024	-7.954937	19.336747	5.920484	0.103332	1.266789	16.572093	0.000000	-0.251012	1.005458	0.743266	-0.466154	1.337259	0.789720	-0.412388	2.444670	0.789720	-0.286882	2.444670	0.650357	-0.233090	2.050330	0.603903	-0.143428	1.557454	0.557449	-1.792953	11.373940	4.133820	0.000000	0.000000	22.358479	-4.518962	-3.690166	10.447158	-18.235502	476.028916	14.135595	6.567325	-7.106680	-11.938295	10.209807	-7.372291	142.289775	6.612952	3.714202	-14.721083	-9.189129
1.779661	8.467606	-4.565936	78.883229	0.263073	0.932647	0.626377	7.637429	7.149984	-29.085830	6.513668	0.113685	15.591247	7.113222	0.000000	4.300060	-7.971585	19.404957	5.819246	0.101565	1.825058	16.583744	0.000000	-0.252802	1.005436	0.745047	-0.469478	1.337230	0.791613	-0.415328	2.444618	0.791613	-0.288927	2.444618	0.651916	-0.234752	2.050285	0.605351	-0.144451	1.557421	0.558785	-1.805738	11.373695	4.143729	0.000000	0.000000	22.404735	-4.369624	-3.548428	10.405289	-18.305534	475.290008	14.257469	6.590093	-7.031251	-11.995868	10.171873	-7.464718	140.922642	6.896947	3.719174	-13.933327	-9.037415
1.796610	8.497886	-4.557850	78.877336	0.263043	0.932490	0.626354	7.577891	7.200594	-29.440707	6.401776	0.111732	15.494323	7.438483	0.000000	4.276450	-8.001435	19.427490	5.725656	0.099932	2.468597	16.590524	0.000000	-0.254823	1.007668	0.747204	-0.473232	1.340199	0.793905	-0.418649	2.450045	0.793905	-0.291238	2.450045	0.653804	-0.236629	2.054838	0.607104	-0.145606	1.560878	0.560403	-1.820178	11.398947	4.155726	0.000000	0.000000	22.460044	-4.193653	-3.367264	10.333209	-18.408405	474.367597	14.404767	6.673944	-6.958837	-12.088611	10.129967	-7.530369	139.627363	7.144743	3.737540	-13.187960	-8.914959
1.813559	8.529109	-4.553254	78.874755	0.262974	0.932318	0.626313	7.530975	7.235603	-29.997036	6.330133	0.110482	15.369167	7.872888	0.000000	4.257133	-8.034485	19.371167	5.639501	0.098428	3.095179	16.603519	0.000000	-0.255989	1.010602	0.748473	-0.475398	1.344101	0.795252	-0.420565	2.457178	0.795252	-0.292570	2.457178	0.654914	-0.237712	2.060820	0.608134	-0.146272	1.565423	0.561354	-1.828507	11.432134	4.162780	0.000000	0.000000	22.523273	-4.011330	-3.166729	10.240599	-18.523326	473.365722	14.552995	6.828761	-6.906186	-12.215760	10.087340	-7.576931	138.500124	7.354663	3.767640	-12.537469	-8.809985
1.830508	8.561320	-4.550536	78.874495	0.262890	0.932146	0.626258	7.491543	7.270335	-30.560780	6.277548	0.109564	15.220001	8.192446	0.000000	4.242043	-8.070998	19.258291	5.570825	0.097229	3.663348	16.627331	0.000000	-0.256687	1.013737	0.749534	-0.476693	1.348270	0.796379	-0.421711	2.464799	0.796379	-0.293367	2.464799	0.655842	-0.238359	2.067212	0.608996	-0.146671	1.570278	0.562150	-1.833488	11.467592	4.168681	0.000000	0.000000	22.582882	-3.816812	-2.955013	10.142388	-18.630067	472.462799	14.679379	6.911785	-6.857507	-12.373329	10.046799	-7.603678	137.675121	7.510830	3.778044	-12.010169	-8.695876
1.847458	8.586064	-4.553564	78.866004	0.262815	0.931975	0.626198	7.472450	7.293577	-31.121178	6.261117	0.109277	15.070713	8.395681	0.000000	4.228184	-8.102484	19.154563	5.509160	0.096153	4.100335	16.623267	0.000000	-0.256522	1.015953	0.752279	-0.476388	1.351218	0.799296	-0.421441	2.470188	0.799296	-0.293179	2.470188	0.658244	-0.238207	2.071731	0.611226	-0.146577	1.573711	0.564209	-1.832314	11.492664	4.183948	0.000000	0.000000	22.637252	-3.614563	-2.736069	10.057405	-18.712385	471.834982	14.762413	6.798463	-6.796022	-12.571025	10.011367	-7.606815	137.303011	7.592893	3.709659	-11.622174	-8.568875
